<svg width="1407" height="168" viewBox="0 0 1407 168" fill="none" xmlns="http://www.w3.org/2000/svg">
<path d="M237.151 138.274C233.505 138.274 230.693 137.284 228.714 135.303C226.735 133.322 225.745 130.507 225.745 126.859V39.2861C225.745 35.6373 226.839 32.7182 229.026 30.5289C231.214 28.3396 234.182 27.2449 237.932 27.2449C241.681 27.2449 244.65 28.3396 246.837 30.5289C249.024 32.7182 250.118 35.6373 250.118 39.2861V118.414H290.114C297.718 118.414 301.519 121.75 301.519 128.422C301.519 134.99 297.718 138.274 290.114 138.274H237.151Z" fill="#00B8AD"/>
<path d="M346.433 59.6155C357.682 59.6155 366.015 62.3782 371.431 67.9036C376.847 73.3247 379.555 81.6649 379.555 92.9243V128.266C379.555 131.706 378.566 134.417 376.587 136.398C374.608 138.274 371.848 139.213 368.306 139.213C364.973 139.213 362.265 138.222 360.182 136.241C358.203 134.156 357.214 131.498 357.214 128.266V127.171C355.651 131.029 353.047 134.052 349.402 136.241C345.756 138.431 341.486 139.525 336.591 139.525C331.383 139.525 326.644 138.483 322.373 136.398C318.207 134.313 314.874 131.394 312.374 127.64C309.979 123.887 308.781 119.717 308.781 115.13C308.781 109.5 310.187 105.07 312.999 101.838C315.915 98.606 320.55 96.2604 326.904 94.8008C333.258 93.3413 341.955 92.6115 352.995 92.6115H357.057V89.7967C357.057 85.4181 356.068 82.2383 354.089 80.2575C352.214 78.2767 349.037 77.2863 344.559 77.2863C340.08 77.2863 333.622 78.8501 325.185 81.9777C322.79 83.1245 320.759 83.6979 319.092 83.6979C316.801 83.6979 314.978 82.916 313.624 81.3522C312.27 79.6841 311.593 77.547 311.593 74.9406C311.593 72.8556 312.062 71.1354 312.999 69.7801C313.937 68.4248 315.447 67.1738 317.53 66.027C321.175 64.0462 325.602 62.4824 330.81 61.3356C336.122 60.1889 341.33 59.6155 346.433 59.6155ZM341.746 123.262C346.329 123.262 350.027 121.75 352.839 118.727C355.651 115.599 357.057 111.586 357.057 106.686V104.027H354.401C345.965 104.027 340.028 104.705 336.591 106.06C333.258 107.415 331.591 109.865 331.591 113.41C331.591 116.329 332.529 118.727 334.403 120.603C336.382 122.376 338.83 123.262 341.746 123.262Z" fill="#00B8AD"/>
<path d="M449.533 66.6525C450.47 64.4632 451.772 62.8473 453.439 61.8048C455.209 60.7622 457.084 60.241 459.063 60.241C462.084 60.241 464.74 61.2314 467.031 63.2122C469.323 65.0887 470.468 67.3823 470.468 70.0929C470.468 71.5524 470.104 73.012 469.375 74.4715L427.347 160.793C426.306 162.982 424.9 164.598 423.129 165.641C421.358 166.787 419.484 167.361 417.505 167.361C414.588 167.361 412.036 166.423 409.849 164.546C407.662 162.669 406.568 160.376 406.568 157.665C406.568 155.997 406.933 154.433 407.662 152.974L417.973 131.55L390.163 74.4715C389.539 73.012 389.226 71.6045 389.226 70.2493C389.226 67.4344 390.424 65.0366 392.819 63.0558C395.319 61.075 398.131 60.0846 401.256 60.0846C403.339 60.0846 405.266 60.658 407.037 61.8048C408.808 62.8473 410.214 64.4632 411.255 66.6525L430.628 108.875L449.533 66.6525Z" fill="#00B8AD"/>
<path d="M540.683 115.443C542.766 115.443 544.432 116.277 545.682 117.945C547.036 119.613 547.713 121.75 547.713 124.357C547.713 126.129 547.193 127.797 546.151 129.361C545.109 130.82 543.651 132.071 541.776 133.114C538.235 134.99 534.121 136.554 529.434 137.805C524.747 138.952 520.424 139.525 516.466 139.525C508.134 139.525 500.843 137.909 494.593 134.678C488.448 131.446 483.709 126.859 480.376 120.916C477.043 114.869 475.376 107.78 475.376 99.6486C475.376 91.8296 476.991 84.8968 480.22 78.8501C483.449 72.8035 487.927 68.1121 493.656 64.776C499.385 61.3356 505.894 59.6155 513.185 59.6155C520.164 59.6155 526.257 61.1793 531.465 64.3068C536.777 67.3302 540.891 71.7088 543.807 77.4427C546.724 83.0724 548.182 89.6924 548.182 97.3029C548.182 99.5964 547.609 101.369 546.463 102.62C545.422 103.767 543.912 104.34 541.933 104.34H498.187C498.916 110.491 500.791 114.974 503.811 117.789C506.832 120.499 511.154 121.854 516.779 121.854C519.799 121.854 522.507 121.49 524.903 120.76C527.299 120.03 529.955 119.04 532.871 117.789C534.329 117.163 535.735 116.642 537.089 116.225C538.443 115.704 539.641 115.443 540.683 115.443ZM513.81 75.8789C509.331 75.8789 505.738 77.3385 503.03 80.2575C500.322 83.0724 498.707 87.1904 498.187 92.6115H528.34C528.028 87.0861 526.622 82.916 524.122 80.1012C521.726 77.2863 518.289 75.8789 513.81 75.8789Z" fill="#00B8AD"/>
<path d="M608.208 59.9282C611.333 59.7197 613.78 60.4495 615.551 62.1175C617.426 63.6813 618.363 66.0791 618.363 69.311C618.363 72.7513 617.53 75.3055 615.864 76.9736C614.197 78.6416 611.229 79.6841 606.958 80.1012L602.271 80.5703C596.543 81.1958 592.376 83.0724 589.772 86.2C587.273 89.3275 586.023 93.3413 586.023 98.2412V128.11C586.023 131.758 584.877 134.521 582.586 136.398C580.398 138.274 577.638 139.213 574.305 139.213C570.868 139.213 568.004 138.274 565.712 136.398C563.525 134.521 562.431 131.758 562.431 128.11V70.7184C562.431 67.278 563.577 64.6196 565.868 62.743C568.16 60.8665 570.92 59.9282 574.149 59.9282C577.273 59.9282 579.877 60.8665 581.961 62.743C584.044 64.5153 585.085 67.0174 585.085 70.2493V74.4715C586.96 69.9886 589.772 66.5483 593.522 64.1505C597.376 61.7526 601.542 60.3974 606.021 60.0846L608.208 59.9282Z" fill="#00B8AD"/>
<path d="M653.436 139.525C647.082 139.525 641.562 139.004 636.875 137.962C632.188 136.919 628.074 135.251 624.532 132.957C622.97 132.019 621.772 130.768 620.939 129.204C620.106 127.64 619.689 125.868 619.689 123.887C619.689 121.49 620.366 119.509 621.72 117.945C623.074 116.277 624.741 115.443 626.72 115.443C628.074 115.443 629.428 115.704 630.782 116.225C632.136 116.642 633.542 117.163 635 117.789C637.916 119.144 640.781 120.239 643.593 121.073C646.405 121.802 649.894 122.167 654.061 122.167C657.706 122.167 660.518 121.594 662.497 120.447C664.581 119.3 665.622 117.736 665.622 115.756C665.622 114.296 665.153 113.149 664.216 112.315C663.383 111.377 661.768 110.543 659.373 109.813C656.977 109.083 653.175 108.197 647.968 107.155C638.698 105.382 632.032 102.724 627.969 99.1794C623.907 95.6348 621.876 90.6828 621.876 84.3234C621.876 79.632 623.282 75.4098 626.095 71.6567C629.011 67.9036 632.969 64.9845 637.968 62.8994C642.968 60.7101 648.592 59.6155 654.842 59.6155C659.321 59.6155 663.695 60.1889 667.966 61.3356C672.236 62.4824 676.038 64.0983 679.371 66.1834C682.6 68.1642 684.214 71.0833 684.214 74.9406C684.214 77.4427 683.537 79.5278 682.183 81.1958C680.829 82.8639 679.163 83.6979 677.184 83.6979C674.788 83.6979 671.924 82.7596 668.591 80.8831C665.987 79.5278 663.591 78.5374 661.404 77.9118C659.321 77.1821 656.821 76.8172 653.904 76.8172C650.676 76.8172 648.124 77.4427 646.249 78.6937C644.374 79.8405 643.437 81.4564 643.437 83.5415C643.437 85.7308 644.53 87.3989 646.718 88.5456C648.905 89.6924 653.123 90.8392 659.373 91.986C666.351 93.3413 671.819 95.0093 675.777 96.9901C679.735 98.8667 682.6 101.264 684.37 104.184C686.141 107.103 687.026 110.804 687.026 115.287C687.026 122.688 683.954 128.579 677.808 132.957C671.767 137.336 663.643 139.525 653.436 139.525Z" fill="#00B8AD"/>
<path d="M805.703 120.603C806.849 120.603 807.838 121.073 808.671 122.011C809.505 122.949 809.921 124.148 809.921 125.608C809.921 128.214 808.099 130.612 804.453 132.801C800.703 134.99 796.745 136.658 792.579 137.805C788.413 138.848 784.351 139.369 780.393 139.369C768.623 139.369 759.301 135.876 752.427 128.892C745.656 121.907 742.271 112.263 742.271 99.9613C742.271 92.1424 743.782 85.2617 746.802 79.3193C749.823 73.2726 754.041 68.5812 759.457 65.2451C764.978 61.909 771.227 60.241 778.206 60.241C788.1 60.241 795.964 63.4728 801.797 69.9365C807.63 76.4002 810.546 85.1574 810.546 96.2082C810.546 98.2933 810.13 99.805 809.296 100.743C808.463 101.682 807.109 102.151 805.234 102.151H754.926C755.864 120.082 764.353 129.048 780.393 129.048C784.455 129.048 787.944 128.527 790.861 127.484C793.777 126.337 796.902 124.826 800.235 122.949C802.943 121.385 804.766 120.603 805.703 120.603ZM778.362 70.0929C771.696 70.0929 766.332 72.1779 762.27 76.3481C758.312 80.5182 755.968 86.4085 755.239 94.0189H799.453C799.245 86.3042 797.318 80.4139 793.673 76.3481C790.027 72.1779 784.924 70.0929 778.362 70.0929Z" fill="#00B8AD"/>
<path d="M890.28 27.2449C892.259 27.2449 893.821 27.8183 894.967 28.9651C896.113 30.1119 896.686 31.5714 896.686 33.3437V132.801C896.686 134.678 896.113 136.189 894.967 137.336C893.821 138.483 892.259 139.056 890.28 139.056C888.301 139.056 886.739 138.483 885.593 137.336C884.551 136.189 884.031 134.678 884.031 132.801V124.357C881.739 129.152 878.354 132.853 873.875 135.459C869.501 138.066 864.345 139.369 858.408 139.369C851.742 139.369 845.857 137.701 840.753 134.365C835.65 131.029 831.692 126.389 828.879 120.447C826.067 114.4 824.661 107.415 824.661 99.4922C824.661 91.6732 826.067 84.7925 828.879 78.8501C831.692 72.9077 835.65 68.3206 840.753 65.0887C845.857 61.8569 851.742 60.241 858.408 60.241C864.345 60.241 869.501 61.5441 873.875 64.1505C878.354 66.7568 881.739 70.4578 884.031 75.2534V33.3437C884.031 31.4672 884.551 30.0076 885.593 28.9651C886.739 27.8183 888.301 27.2449 890.28 27.2449ZM860.908 128.892C868.303 128.892 873.979 126.389 877.937 121.385C881.999 116.277 884.031 109.083 884.031 99.805C884.031 90.5264 881.999 83.3851 877.937 78.381C873.979 73.3768 868.303 70.8748 860.908 70.8748C853.513 70.8748 847.732 73.3768 843.566 78.381C839.503 83.3851 837.472 90.4222 837.472 99.4922C837.472 108.771 839.503 116.016 843.566 121.229C847.732 126.337 853.513 128.892 860.908 128.892Z" fill="#00B8AD"/>
<path d="M977.933 60.5537C979.912 60.5537 981.422 61.1271 982.464 62.2739C983.609 63.4207 984.182 64.9324 984.182 66.8089V132.957C984.182 134.73 983.609 136.189 982.464 137.336C981.422 138.483 979.912 139.056 977.933 139.056C976.058 139.056 974.548 138.535 973.402 137.492C972.36 136.346 971.84 134.886 971.84 133.114V125.295C969.444 129.882 966.059 133.374 961.684 135.772C957.414 138.17 952.571 139.369 947.154 139.369C938.093 139.369 931.27 136.867 926.688 131.863C922.105 126.754 919.813 119.248 919.813 109.344V66.8089C919.813 64.9324 920.386 63.4207 921.532 62.2739C922.678 61.1271 924.24 60.5537 926.219 60.5537C928.198 60.5537 929.708 61.1271 930.75 62.2739C931.895 63.4207 932.468 64.9324 932.468 66.8089V109.031C932.468 115.808 933.822 120.812 936.53 124.044C939.238 127.171 943.509 128.735 949.342 128.735C956.008 128.735 961.372 126.598 965.434 122.324C969.496 117.945 971.527 112.211 971.527 105.122V66.8089C971.527 64.9324 972.1 63.4207 973.246 62.2739C974.391 61.1271 975.954 60.5537 977.933 60.5537Z" fill="#00B8AD"/>
<path d="M1039.11 139.369C1032.02 139.369 1025.72 137.753 1020.2 134.521C1014.79 131.289 1010.57 126.702 1007.55 120.76C1004.63 114.817 1003.17 107.937 1003.17 100.118C1003.17 92.2987 1004.68 85.3659 1007.7 79.3193C1010.83 73.2726 1015.15 68.5812 1020.67 65.2451C1026.19 61.909 1032.54 60.241 1039.73 60.241C1043.69 60.241 1047.59 60.8144 1051.45 61.9611C1055.41 63.0037 1058.84 64.5675 1061.76 66.6525C1063.64 67.9036 1064.94 69.1546 1065.67 70.4056C1066.5 71.5524 1066.92 72.8556 1066.92 74.3151C1066.92 75.7747 1066.5 76.9736 1065.67 77.9118C1064.94 78.8501 1063.95 79.3193 1062.7 79.3193C1061.97 79.3193 1061.19 79.1108 1060.35 78.6937C1059.52 78.2767 1058.79 77.8597 1058.17 77.4427C1057.65 77.0257 1057.28 76.7651 1057.07 76.6608C1054.37 74.8885 1051.76 73.4811 1049.26 72.4386C1046.87 71.396 1043.9 70.8748 1040.36 70.8748C1032.75 70.8748 1026.82 73.4811 1022.55 78.6937C1018.38 83.8021 1016.3 90.9435 1016.3 100.118C1016.3 109.292 1018.38 116.381 1022.55 121.385C1026.82 126.389 1032.75 128.892 1040.36 128.892C1043.9 128.892 1046.92 128.37 1049.42 127.328C1052.02 126.285 1054.63 124.878 1057.23 123.105C1058.38 122.376 1059.47 121.75 1060.51 121.229C1061.55 120.708 1062.44 120.447 1063.17 120.447C1064.31 120.447 1065.25 120.916 1065.98 121.854C1066.81 122.793 1067.23 123.992 1067.23 125.451C1067.23 126.806 1066.86 128.057 1066.13 129.204C1065.41 130.247 1064.05 131.446 1062.07 132.801C1059.16 134.782 1055.62 136.398 1051.45 137.649C1047.39 138.796 1043.27 139.369 1039.11 139.369Z" fill="#00B8AD"/>
<path d="M1113.55 60.241C1132.62 60.241 1142.15 70.2493 1142.15 90.2658V132.801C1142.15 134.678 1141.57 136.189 1140.43 137.336C1139.39 138.483 1137.93 139.056 1136.05 139.056C1134.18 139.056 1132.67 138.483 1131.52 137.336C1130.38 136.189 1129.8 134.678 1129.8 132.801V125.295C1127.82 129.778 1124.8 133.27 1120.74 135.772C1116.68 138.17 1111.99 139.369 1106.68 139.369C1101.79 139.369 1097.25 138.379 1093.09 136.398C1089.03 134.417 1085.8 131.654 1083.4 128.11C1081.01 124.565 1079.81 120.656 1079.81 116.381C1079.81 110.647 1081.27 106.217 1084.18 103.089C1087.1 99.8571 1091.89 97.5635 1098.56 96.2082C1105.22 94.7487 1114.49 94.0189 1126.37 94.0189H1129.8V88.8584C1129.8 82.6032 1128.5 78.0161 1125.9 75.097C1123.4 72.1779 1119.28 70.7184 1113.55 70.7184C1106.47 70.7184 1099.29 72.6471 1091.99 76.5044C1089.18 78.2767 1087.2 79.1629 1086.06 79.1629C1084.81 79.1629 1083.77 78.6937 1082.93 77.7555C1082.1 76.8172 1081.68 75.6183 1081.68 74.1587C1081.68 72.6992 1082.1 71.4482 1082.93 70.4056C1083.87 69.2589 1085.33 68.1121 1087.31 66.9653C1090.95 64.8802 1095.07 63.2643 1099.65 62.1175C1104.34 60.8665 1108.97 60.241 1113.55 60.241ZM1108.4 129.361C1114.65 129.361 1119.75 127.276 1123.71 123.105C1127.77 118.831 1129.8 113.358 1129.8 106.686V102.151H1126.99C1117.83 102.151 1110.85 102.568 1106.06 103.402C1101.26 104.131 1097.83 105.435 1095.74 107.311C1093.76 109.083 1092.78 111.742 1092.78 115.287C1092.78 119.352 1094.23 122.741 1097.15 125.451C1100.17 128.057 1103.92 129.361 1108.4 129.361Z" fill="#00B8AD"/>
<path d="M1200.46 129.048C1204.11 129.361 1205.93 131.029 1205.93 134.052C1205.93 135.824 1205.26 137.18 1203.9 138.118C1202.65 138.952 1200.72 139.265 1198.12 139.056L1193.9 138.743C1185.57 138.118 1179.42 135.616 1175.47 131.237C1171.51 126.859 1169.53 120.239 1169.53 111.377V72.1258H1159.06C1157.29 72.1258 1155.89 71.7088 1154.84 70.8748C1153.91 69.9365 1153.44 68.7376 1153.44 67.278C1153.44 65.7143 1153.91 64.4632 1154.84 63.5249C1155.89 62.5867 1157.29 62.1175 1159.06 62.1175H1169.53V44.4467C1169.53 42.4659 1170.1 40.9542 1171.25 39.9117C1172.39 38.7649 1173.96 38.1915 1175.94 38.1915C1177.81 38.1915 1179.32 38.7649 1180.47 39.9117C1181.61 40.9542 1182.18 42.4659 1182.18 44.4467V62.1175H1199.53C1201.19 62.1175 1202.5 62.5867 1203.43 63.5249C1204.47 64.4632 1205 65.7143 1205 67.278C1205 68.7376 1204.47 69.9365 1203.43 70.8748C1202.5 71.7088 1201.19 72.1258 1199.53 72.1258H1182.18V112.003C1182.18 117.736 1183.33 121.907 1185.62 124.513C1188.02 127.015 1191.56 128.422 1196.25 128.735L1200.46 129.048Z" fill="#00B8AD"/>
<path d="M1224.81 139.056C1222.94 139.056 1221.38 138.535 1220.13 137.492C1218.98 136.346 1218.41 134.782 1218.41 132.801V66.8089C1218.41 64.8281 1218.98 63.3164 1220.13 62.2739C1221.38 61.1271 1222.94 60.5537 1224.81 60.5537C1226.69 60.5537 1228.2 61.1271 1229.34 62.2739C1230.49 63.3164 1231.06 64.8281 1231.06 66.8089V132.801C1231.06 134.886 1230.49 136.45 1229.34 137.492C1228.2 138.535 1226.69 139.056 1224.81 139.056ZM1224.81 44.1339C1222.31 44.1339 1220.28 43.4041 1218.72 41.9446C1217.16 40.485 1216.38 38.5564 1216.38 36.1586C1216.38 33.865 1217.16 31.9884 1218.72 30.5289C1220.28 29.0694 1222.31 28.3396 1224.81 28.3396C1227.31 28.3396 1229.34 29.0694 1230.91 30.5289C1232.47 31.9884 1233.25 33.865 1233.25 36.1586C1233.25 38.5564 1232.47 40.485 1230.91 41.9446C1229.34 43.4041 1227.31 44.1339 1224.81 44.1339Z" fill="#00B8AD"/>
<path d="M1286.28 139.369C1279.09 139.369 1272.74 137.753 1267.22 134.521C1261.8 131.289 1257.58 126.702 1254.56 120.76C1251.65 114.713 1250.19 107.728 1250.19 99.805C1250.19 91.8817 1251.65 84.9489 1254.56 79.0065C1257.58 72.9598 1261.8 68.3206 1267.22 65.0887C1272.74 61.8569 1279.09 60.241 1286.28 60.241C1293.47 60.241 1299.82 61.8569 1305.34 65.0887C1310.86 68.3206 1315.08 72.9598 1317.99 79.0065C1321.02 84.9489 1322.53 91.8817 1322.53 99.805C1322.53 107.728 1321.02 114.713 1317.99 120.76C1315.08 126.702 1310.86 131.289 1305.34 134.521C1299.82 137.753 1293.47 139.369 1286.28 139.369ZM1286.28 128.892C1293.78 128.892 1299.51 126.442 1303.46 121.542C1307.53 116.538 1309.56 109.292 1309.56 99.805C1309.56 90.5264 1307.53 83.3851 1303.46 78.381C1299.4 73.2726 1293.67 70.7184 1286.28 70.7184C1278.88 70.7184 1273.16 73.2726 1269.09 78.381C1265.03 83.3851 1263 90.5264 1263 99.805C1263 109.188 1264.98 116.381 1268.94 121.385C1273 126.389 1278.78 128.892 1286.28 128.892Z" fill="#00B8AD"/>
<path d="M1379.66 60.241C1397.89 60.241 1407 70.3014 1407 90.4222V132.801C1407 134.782 1406.43 136.346 1405.28 137.492C1404.24 138.535 1402.73 139.056 1400.75 139.056C1398.77 139.056 1397.21 138.535 1396.06 137.492C1394.92 136.346 1394.34 134.782 1394.34 132.801V91.2041C1394.34 84.1149 1392.94 78.9544 1390.13 75.7225C1387.42 72.4907 1383.04 70.8748 1377 70.8748C1370.02 70.8748 1364.45 73.012 1360.29 77.2863C1356.12 81.5607 1354.04 87.3467 1354.04 94.6444V132.801C1354.04 134.782 1353.46 136.346 1352.32 137.492C1351.28 138.535 1349.77 139.056 1347.79 139.056C1345.81 139.056 1344.25 138.535 1343.1 137.492C1341.95 136.346 1341.38 134.782 1341.38 132.801V66.8089C1341.38 64.9324 1341.95 63.4207 1343.1 62.2739C1344.25 61.1271 1345.81 60.5537 1347.79 60.5537C1349.66 60.5537 1351.12 61.1271 1352.16 62.2739C1353.31 63.4207 1353.88 64.8802 1353.88 66.6525V74.6279C1356.38 69.9365 1359.87 66.3919 1364.35 63.9941C1368.83 61.492 1373.93 60.241 1379.66 60.241Z" fill="#00B8AD"/>
<path opacity="0.55" fill-rule="evenodd" clip-rule="evenodd" d="M55.5343 27.7269C55.5343 13.6427 45.088 2.08925 31.5629 0.218689C32.9924 0.218689 34.4218 0.218689 35.7414 0.328722C42.7788 0.328722 49.8163 0.878886 56.7438 1.97922C56.761 1.97922 56.7754 1.98189 56.7881 1.98682C67.2173 3.6388 77.2083 6.60687 86.9801 10.672C102.595 17.2739 116.669 26.7368 128.765 38.8404C140.861 50.944 150.317 65.0282 156.915 80.6529C161.078 90.2986 163.931 100.272 165.583 110.573C165.604 110.592 165.625 110.61 165.645 110.629C165.669 110.65 165.692 110.672 165.716 110.693C166.815 117.625 167.365 124.667 167.365 131.819V131.82C167.365 133.58 167.365 135.34 167.255 137.101C166.045 122.796 154.06 111.683 139.545 111.683H109.086C108.106 107.871 106.803 104.274 105.177 100.679H105.124C101.385 92.3164 96.1069 84.7241 89.5092 78.1221C82.8016 71.4101 74.9944 66.1285 66.6374 62.3874V62.2759C63.0097 60.626 59.3819 59.3061 55.5343 58.3161V27.7269ZM109.086 100.68V100.679H139.541C139.678 100.679 139.815 100.68 139.951 100.681C139.853 100.68 139.754 100.68 139.655 100.68H109.086Z" fill="#00B8AD"/>
<path d="M167.25 137.101C166.04 122.907 154.055 111.683 139.54 111.683H109.081H64.8767C59.7086 111.683 55.6401 107.502 55.6401 102.441V58.4275V27.8383C55.6401 13.7541 45.1938 2.20066 31.6686 0.330099C30.3491 0.110033 29.0296 0 27.82 0C25.071 0 22.432 0.440131 19.9029 1.10033C8.35701 4.51135 0 15.1845 0 27.8383V64.6993V139.522C0 154.926 12.4255 167.36 27.82 167.36H103.033H139.54C152.625 167.36 163.731 158.227 166.59 146.014C167.03 143.923 167.36 141.832 167.36 139.632C167.36 138.751 167.25 137.871 167.25 137.101Z" fill="#00B8AD"/>
</svg>
