<svg width="86" height="72" fill="none" xmlns="http://www.w3.org/2000/svg"><path d="M51.742 35.272v-17.65h-.022l8.718-8.804L51.711 0l-8.718 8.831 8.71 8.792H34.275l8.718-8.805L34.266 0l-8.718 8.831 8.718 8.8v17.641h17.476z" fill="url(#paint0_linear)"/><path d="M65.518 48.856s-.68-.683-1.604-.683c-.883 0-1.603.297-1.603 1.509v7.478h-2.343v-7.478c0-2.392 1.46-3.803 3.744-3.803.752 0 1.784.266 2.233.674.338.31.312.826.092 1.363-.119.288-.396.75-.519.94zM13.09 41.374c-.79 0-1.428.661-1.428 1.473 0 .813.637 1.474 1.428 1.474.787 0 1.429-.661 1.429-1.474 0-.812-.642-1.473-1.428-1.473zM11.996 46.038v9.59c0 1.518 1.204 1.811 2.338 1.616v-9.59c.005-1.523-1.2-1.811-2.338-1.616zM52.621 45.879c-3.361 0-5.128 2.6-5.128 5.809 0 3.208 1.767 5.809 5.128 5.809 3.362 0 5.133-2.6 5.133-5.81 0-3.208-1.771-5.808-5.133-5.808zm0 9.523c-2 0-2.685-1.664-2.685-3.714 0-2.055.69-3.715 2.685-3.715 2 0 2.685 1.66 2.685 3.715.005 2.05-.685 3.714-2.685 3.714zM5.176 45.879c-1.893 0-2.715.807-2.983 1.056C1.696 45.75 0 46.109 0 46.109v15.919h2.342v-5.383c.163.128.716.856 2.61.856.528 0 4.729 0 4.729-5.986 0-5.983-4.505-5.636-4.505-5.636zm-.536 9.523c-1.406 0-2.219-.998-2.298-1.092v-5.054c0-.342.198-.63.598-.892.43-.275.988-.417 1.652-.417.492 0 2.61-.014 2.61 3.67 0 1.256-.167 3.785-2.562 3.785zM43.13 46.94c-.268-.254-1.09-1.061-2.984-1.061 0 0-4.504-.347-4.504 5.631 0 5.987 4.2 5.987 4.728 5.987 1.89 0 2.443-.724 2.61-.857 0 1.58-.255 2.077-.466 2.419-.206.328-.505.59-.887.772-.391.187-.932.28-1.608.28-2.066 0-3.116-1.38-3.116-1.38s-.962.954-.962 1.606c0 .994 1.665 1.868 4.082 1.868 2.781 0 3.8-1.091 4.21-1.615.404-.52 1.094-1.584 1.094-4.398V46.11c-.009 0-1.7-.355-2.197.83zm-.15 7.375c-.074.093-.892 1.092-2.298 1.092-2.4 0-2.566-2.53-2.566-3.786 0-3.683 2.113-3.67 2.61-3.67.668 0 1.222.142 1.652.417.404.258.598.55.598.888v5.059h.004zM20.468 57.497c1.785 0 3.01-.874 3.01-1.593 0-.662-.593-1.327-.887-1.625 0 0-.73 1.123-1.832 1.123-.528 0-1.227-.169-1.227-1.62V48.2h2.053c1.318 0 1.568-1.066 1.401-2.073h-3.454v-1.598c0-1.517-1.204-1.806-2.337-1.615v10.735c-.005 1.18-.005 3.848 3.273 3.848zM33.405 48.275c-.136-.533-.615-2.396-3.994-2.396-2.202 0-3.423.745-3.678.927-.299.218-.448.466-.448.737 0 .164.021.377.136.617.237.501.593.78.593.78s1.525-.967 3.173-.967c.835 0 1.397.156 1.674.453.457.492.422 1.486.422 1.486-.08-.004-.159-.004-.246-.004 0 0-6.42-.36-6.42 4.074 0 .666.114 1.225.334 1.66.224.435.9 1.717 3.23 1.717 2.13 0 2.93-.87 3.255-1.145.264.781.831 1.283 2.163 1.025v-7.198a6.98 6.98 0 00-.194-1.766zm-2.1 5.618c-.057 1.27-4.35 2.548-4.35-.022 0-2.36 4.35-2.046 4.35-2.046v2.068zM75.8 48.275c-.135-.533-.614-2.396-3.993-2.396-2.202 0-3.424.745-3.674.927-.299.218-.448.466-.448.737 0 .164.022.377.136.617.233.501.593.78.593.78s1.52-.967 3.173-.967c.84 0 1.397.156 1.674.453.457.492.422 1.486.422 1.486-.075-.004-.158-.004-.242-.004 0 0-6.42-.36-6.42 4.074 0 .666.114 1.225.339 1.66.224.435.9 1.717 3.23 1.717 2.13 0 2.93-.87 3.255-1.145.269.781.831 1.283 2.162 1.025v-7.198c-.008-.657-.074-1.251-.206-1.766zm-2.095 5.618c-.057 1.27-4.35 2.548-4.35-.022 0-2.36 4.35-2.046 4.35-2.046v2.068zM85.987 53.916c0 .59-.106 1.127-.36 1.562-1.187 1.997-3.393 1.997-3.942 1.997-2.224 0-3.221-.777-3.392-.959-.19-.2-.286-.413-.286-.639 0-.626.725-1.673.725-1.673s1.248 1.265 3.019 1.265c1.894 0 1.916-1.127 1.916-1.398 0-.27-.058-.484-.163-.653-.272-.434-.69-.612-1.16-.74-.475-.13-2.32-.413-3.199-1.177-.316-.275-.598-.581-.795-.958-.203-.386-.308-.866-.308-1.425 0-1.433.874-2.183 1.257-2.45.378-.261 1.305-.794 2.76-.794 1.485 0 2.49.466 2.79.64.32.181.865.518.865 1.073 0 .83-.786 1.451-.786 1.451s-1.138-1.158-2.83-1.158c-.18 0-1.762-.005-1.762 1.127 0 .196.04.355.127.48.093.137.224.257.4.363.185.111.404.204.655.284.263.08.55.16.857.231.452.107.896.244 1.318.4 2.294.856 2.294 2.565 2.294 3.15zM27.829 44.503s1.832-2.419 2.008-2.659c.084-.106.571-.874 1.358-.874.782 0 1.595.741 1.595.741l-2.417 2.632c-.189.19-.584.701-1.3.701-.633 0-1.244-.541-1.244-.541zM60.109 71.458c-.026.027-.08.071-.154.13-.075.061-.175.119-.303.177a2.464 2.464 0 01-1.063.23c-.418 0-.774-.07-1.077-.213a1.995 1.995 0 01-.743-.59 2.487 2.487 0 01-.426-.896 4.456 4.456 0 01-.136-1.14c0-.41.044-.786.14-1.137.093-.35.238-.652.431-.91.194-.253.444-.452.743-.594.299-.147.655-.218 1.072-.218a2.469 2.469 0 011.12.258c.15.08.269.164.356.252.093.094.137.182.137.262a.482.482 0 01-.07.227c-.049.08-.093.146-.141.208h-.145a3.071 3.071 0 00-.207-.204 1.2 1.2 0 00-.272-.19 1.614 1.614 0 00-.778-.19c-.32-.002-.593.06-.804.19a1.448 1.448 0 00-.51.51c-.127.208-.22.443-.272.71a4.176 4.176 0 00-.084.812c0 .284.031.559.084.825.057.271.154.51.29.715.136.208.312.377.531.501.224.129.497.191.826.191a1.4 1.4 0 00.484-.08 1.58 1.58 0 00.378-.182 2.054 2.054 0 00.409-.35c.057.048.123.12.188.208.066.089.102.169.102.231 0 .053-.01.093-.036.124-.008.05-.04.089-.07.133zM65.461 69.11c0 .391-.044.764-.136 1.11a2.737 2.737 0 01-.417.919 2.11 2.11 0 01-.734.626c-.3.155-.66.235-1.077.235-.417 0-.769-.08-1.063-.235a1.992 1.992 0 01-.716-.635 2.708 2.708 0 01-.4-.919 4.63 4.63 0 01-.123-1.087c0-.373.048-.732.136-1.074.092-.337.233-.639.43-.896.194-.258.444-.466.739-.622.298-.15.659-.226 1.072-.226.409 0 .751.071 1.041.218.29.146.528.35.712.603.185.253.32.555.409.897.083.337.127.7.127 1.087zm-.738.01c0-.293-.026-.573-.08-.835a2.199 2.199 0 00-.263-.692 1.313 1.313 0 00-.487-.47c-.203-.116-.449-.17-.739-.17-.307 0-.567.059-.769.17a1.37 1.37 0 00-.496.47c-.128.2-.22.43-.273.692-.053.262-.079.542-.079.835 0 .292.026.576.08.847.052.271.144.51.267.72.123.208.286.372.488.496.202.12.453.182.756.182.299 0 .55-.062.751-.182.207-.124.37-.288.492-.497.124-.213.211-.453.269-.719a4.11 4.11 0 00.083-.847zM66.586 66.395c.022 0 .04-.005.066-.01.022 0 .04 0 .062-.004.022 0 .048-.004.074-.004.049 0 .101.009.159.022.057.013.11.04.162.071a.41.41 0 01.128.156c.035.07.052.16.052.266v4.358h1.881c.171 0 .294.04.373.129a.444.444 0 01.115.301c0 .027-.005.05-.005.076 0 .022-.004.04-.004.057v.058h-3.058v-5.476h-.005zM71.165 68.703h1.837v.63h-1.837v1.93h2.056c.18 0 .308.04.383.124.079.085.118.187.118.316 0 .022 0 .044-.004.062-.004.017-.004.04-.004.053v.058h-3.252v-5.468h3.12a.361.361 0 01.017.084v.085c0 .124-.035.23-.105.315-.07.084-.198.124-.387.124h-1.942v1.686zm1.037-2.885c-.075.044-.145.08-.206.106a.457.457 0 01-.18.04.454.454 0 01-.216-.07.587.587 0 01-.171-.143l.834-.674c.088-.071.163-.124.233-.16a.456.456 0 01.216-.053c.092 0 .18.03.272.097a.703.703 0 01.207.222l-.989.635zM76.596 71.396a2.037 2.037 0 00.752-.137c.096-.04.175-.08.237-.12a.62.62 0 00.145-.111V69.59h-1.134v-.581h1.806v2.312c-.04.049-.105.11-.206.186a2.328 2.328 0 01-.387.222 2.75 2.75 0 01-.558.186c-.21.054-.453.08-.725.08-.417 0-.773-.07-1.077-.213a2.002 2.002 0 01-.751-.599 2.513 2.513 0 01-.435-.914 4.536 4.536 0 01-.14-1.154 4.2 4.2 0 01.144-1.131c.097-.347.246-.644.444-.892a2.07 2.07 0 01.765-.586c.307-.142.672-.209 1.098-.209a2.3 2.3 0 01.576.071c.184.044.356.107.5.182.146.071.265.151.357.244.092.093.136.178.136.258a.485.485 0 01-.066.221c-.044.08-.092.156-.145.222h-.136a1.12 1.12 0 00-.193-.186 2.07 2.07 0 00-.282-.186 1.68 1.68 0 00-.795-.19c-.33-.001-.602.06-.817.19-.22.124-.387.292-.523.497-.128.204-.22.434-.268.696-.053.262-.08.533-.08.808 0 .293.031.573.084.843.057.275.154.515.29.728.14.213.316.386.54.515.23.124.51.186.844.186zM80.23 71.876h-.72v-5.477c.022 0 .044 0 .066-.009.022 0 .044 0 .066-.004.022 0 .048-.004.074-.004.049 0 .101.008.158.017.058.013.115.04.167.076a.427.427 0 01.137.155.584.584 0 01.052.266v4.98zM86 69.11c0 .391-.044.764-.132 1.11a2.824 2.824 0 01-.417.919c-.19.257-.43.47-.73.626-.299.155-.659.235-1.08.235-.418 0-.77-.08-1.064-.235a2.03 2.03 0 01-.716-.635 2.708 2.708 0 01-.4-.919 4.63 4.63 0 01-.128-1.087c0-.373.049-.732.14-1.074.093-.337.234-.639.427-.896.194-.258.44-.466.738-.622.3-.15.66-.226 1.073-.226.404 0 .751.071 1.041.218.29.146.527.35.712.603.189.253.32.555.409.897.083.337.127.7.127 1.087zm-.738.01c0-.293-.027-.573-.08-.835a2.098 2.098 0 00-.263-.692 1.3 1.3 0 00-.483-.47c-.203-.116-.449-.17-.739-.17-.307 0-.567.059-.769.17-.206.115-.373.27-.496.47-.128.2-.22.43-.273.692-.052.262-.079.542-.079.835 0 .292.027.576.08.847.052.271.14.51.267.72.123.208.29.372.488.496.202.12.453.182.756.182.299 0 .55-.062.751-.182.207-.124.37-.288.493-.497a2.23 2.23 0 00.268-.719c.052-.27.079-.555.079-.847z" fill="#4A4A49"/><defs><linearGradient id="paint0_linear" x1="54.348" y1="6.174" x2="30.437" y2="29.851" gradientUnits="userSpaceOnUse"><stop stop-color="#FFCC1B"/><stop offset="1" stop-color="#E74E0F"/></linearGradient></defs></svg>